<svg width="14" height="14" viewBox="0 0 14 14" fill="none" xmlns="http://www.w3.org/2000/svg">
<path d="M7 0C6.0375 0 5.25 0.7875 5.25 1.75V12.25C5.25 13.2125 6.0375 14 7 14C7.9625 14 8.75 13.2125 8.75 12.25V1.75C8.75 0.7875 7.9625 0 7 0ZM7.58333 12.25C7.58333 12.5708 7.32083 12.8333 7 12.8333C6.67917 12.8333 6.41667 12.5708 6.41667 12.25V1.75C6.41667 1.42917 6.67917 1.16667 7 1.16667C7.32083 1.16667 7.58333 1.42917 7.58333 1.75V12.25ZM12.25 3.5C11.2875 3.5 10.5 4.2875 10.5 5.25V12.25C10.5 13.2125 11.2875 14 12.25 14C13.2125 14 14 13.2125 14 12.25V5.25C14 4.2875 13.2125 3.5 12.25 3.5ZM12.8333 12.25C12.8333 12.5708 12.5708 12.8333 12.25 12.8333C11.9292 12.8333 11.6667 12.5708 11.6667 12.25V5.25C11.6667 4.92917 11.9292 4.66667 12.25 4.66667C12.5708 4.66667 12.8333 4.92917 12.8333 5.25V12.25ZM1.75 7C0.7875 7 0 7.7875 0 8.75V12.25C0 13.2125 0.7875 14 1.75 14C2.7125 14 3.5 13.2125 3.5 12.25V8.75C3.5 7.7875 2.7125 7 1.75 7ZM2.33333 12.25C2.33333 12.5708 2.07083 12.8333 1.75 12.8333C1.42917 12.8333 1.16667 12.5708 1.16667 12.25V8.75C1.16667 8.42917 1.42917 8.16667 1.75 8.16667C2.07083 8.16667 2.33333 8.42917 2.33333 8.75V12.25Z" fill="#031127"/>
</svg>
