<svg width="20" height="20" viewBox="0 0 20 20" fill="none" xmlns="http://www.w3.org/2000/svg">
<g clip-path="url(#clip0_676_268)">
<path d="M19.1667 13.3334H2.23417L2.24584 13.3209L4.11584 11.4168C4.19766 11.3399 4.26311 11.2473 4.30825 11.1445C4.35339 11.0417 4.3773 10.9308 4.37853 10.8186C4.37977 10.7063 4.35831 10.595 4.31544 10.4912C4.27257 10.3874 4.20917 10.2934 4.12906 10.2148C4.04895 10.1361 3.95377 10.0745 3.84924 10.0335C3.7447 9.99254 3.63297 9.97313 3.52075 9.97643C3.40853 9.97973 3.29814 10.0057 3.19619 10.0527C3.09425 10.0997 3.00286 10.1669 2.92751 10.2501L1.06167 12.1476C0.925839 12.2834 0.735839 12.4918 0.541672 12.7109C0.19299 13.1052 0.000518799 13.6133 0.000518799 14.1397C0.000518799 14.666 0.19299 15.1742 0.541672 15.5684C0.735839 15.7868 0.925839 15.9951 1.05667 16.1268L2.92751 18.0301C3.08434 18.1774 3.29209 18.2584 3.50726 18.256C3.72243 18.2537 3.92835 18.1681 4.0819 18.0174C4.23546 17.8666 4.32474 17.6623 4.33107 17.4472C4.33739 17.2321 4.26027 17.0229 4.11584 16.8634L2.28667 15.0001H19.1667C19.3877 15.0001 19.5996 14.9123 19.7559 14.756C19.9122 14.5997 20 14.3878 20 14.1668C20 13.9457 19.9122 13.7338 19.7559 13.5775C19.5996 13.4212 19.3877 13.3334 19.1667 13.3334Z" fill="white"/>
<path d="M0.833333 6.6669H17.7125L15.8842 8.52774C15.8023 8.60461 15.7369 8.69722 15.6918 8.80001C15.6466 8.9028 15.6227 9.01366 15.6215 9.12592C15.6202 9.23818 15.6417 9.34953 15.6846 9.4533C15.7274 9.55706 15.7908 9.65109 15.8709 9.72974C15.9511 9.80839 16.0462 9.87004 16.1508 9.911C16.2553 9.95195 16.367 9.97136 16.4793 9.96806C16.5915 9.96476 16.7019 9.93882 16.8038 9.89179C16.9058 9.84477 16.9971 9.77763 17.0725 9.6944L18.9383 7.79524C19.0742 7.6594 19.2642 7.45107 19.4583 7.23274C19.807 6.83847 19.9995 6.33031 19.9995 5.80399C19.9995 5.27766 19.807 4.7695 19.4583 4.37524C19.2642 4.15607 19.0742 3.94774 18.9433 3.8169L17.0725 1.9169C16.9157 1.76956 16.7079 1.6886 16.4927 1.69097C16.2776 1.69334 16.0717 1.77885 15.9181 1.9296C15.7645 2.08035 15.6753 2.28466 15.6689 2.49976C15.6626 2.71485 15.7397 2.92405 15.8842 3.08357L17.76 4.9919L17.7667 5.00024H0.833333C0.61232 5.00024 0.400358 5.08803 0.244078 5.24431C0.0877974 5.40059 0 5.61256 0 5.83357C0 6.05458 0.0877974 6.26654 0.244078 6.42282C0.400358 6.57911 0.61232 6.6669 0.833333 6.6669Z" fill="white"/>
</g>
<defs>
<clipPath id="clip0_676_268">
<rect width="20" height="20" fill="white"/>
</clipPath>
</defs>
</svg>
