<svg width="30" height="30" viewBox="0 0 30 30" fill="none" xmlns="http://www.w3.org/2000/svg">
<g clip-path="url(#clip0_235_3190)">
<path d="M15 30C23.2843 30 30 23.2843 30 15C30 6.71573 23.2843 0 15 0C6.71573 0 0 6.71573 0 15C0 23.2843 6.71573 30 15 30Z" fill="#F0F0F0"/>
<path d="M30 14.9999C30 9.05297 26.5392 3.91453 21.5217 1.48828V28.5114C26.5392 26.0852 30 20.9468 30 14.9999Z" fill="#D80027"/>
<path d="M0 14.9999C0 20.9468 3.46084 26.0852 8.47828 28.5115V1.48828C3.46084 3.91453 0 9.05297 0 14.9999Z" fill="#6DA544"/>
<path d="M11.0869 14.9997C11.0869 17.1608 12.8389 18.9127 15 18.9127C17.1611 18.9127 18.913 17.1608 18.913 14.9997V13.6953H11.0869V14.9997Z" fill="#6DA544"/>
<path d="M20.2173 12.3913H16.3042C16.3042 11.6709 15.7202 11.0869 14.9999 11.0869C14.2795 11.0869 13.6955 11.6709 13.6955 12.3913H9.78247C9.78247 13.1117 10.41 13.6956 11.1302 13.6956H11.0868C11.0868 14.416 11.6708 15 12.3912 15C12.3912 15.7204 12.9751 16.3043 13.6955 16.3043H16.3042C17.0247 16.3043 17.6086 15.7204 17.6086 15C18.329 15 18.913 14.416 18.913 13.6956H18.8695C19.5899 13.6956 20.2173 13.1117 20.2173 12.3913Z" fill="#FF9811"/>
</g>
<defs>
<clipPath id="clip0_235_3190">
<rect width="30" height="30" fill="white"/>
</clipPath>
</defs>
</svg>
