<svg width="12" height="10" viewBox="0 0 12 10" fill="none" xmlns="http://www.w3.org/2000/svg">
<path d="M12 5.00014C11.9959 4.56172 11.8193 4.14255 11.5083 3.83347L7.93333 0.25014C7.77719 0.0949308 7.56598 0.0078125 7.34583 0.0078125C7.12567 0.0078125 6.91446 0.0949308 6.75833 0.25014C6.68022 0.327609 6.61823 0.419777 6.57592 0.521326C6.53361 0.622875 6.51183 0.731797 6.51183 0.841807C6.51183 0.951817 6.53361 1.06074 6.57592 1.16229C6.61823 1.26384 6.68022 1.356 6.75833 1.43347L9.5 4.16681H1.16666C0.945648 4.16681 0.733686 4.2546 0.577406 4.41088C0.421126 4.56717 0.333328 4.77913 0.333328 5.00014C0.333328 5.22115 0.421126 5.43312 0.577406 5.5894C0.733686 5.74568 0.945648 5.83347 1.16666 5.83347H9.5L6.75833 8.57514C6.60141 8.73096 6.51281 8.94272 6.51203 9.16386C6.51125 9.385 6.59835 9.59739 6.75416 9.75431C6.90998 9.91123 7.12175 9.99982 7.34288 10.0006C7.56402 10.0014 7.77641 9.91429 7.93333 9.75847L11.5083 6.17514C11.8213 5.86402 11.9981 5.44145 12 5.00014Z" fill="#031127"/>
</svg>
