<svg width="40" height="40" viewBox="0 0 40 40" fill="none" xmlns="http://www.w3.org/2000/svg">
<g clip-path="url(#clip0_124_4087)">
<path d="M31.0345 3.44156V5.66915C31.0345 5.66915 5.33793 36.9795 5.02759 37.4347C4.65836 37.9593 4.1204 38.3415 3.50345 38.5174C2.67243 38.7505 1.78024 38.5811 1.09239 38.0598C0.404542 37.5385 0.00031399 36.7253 3.01722e-06 35.8623V3.87604C-0.00129727 3.25213 0.4178 2.7056 1.02069 2.54501L10.2069 0.0967331C10.8908 -0.088254 11.6197 -0.00176967 12.2414 0.338112L17.9448 3.45535C18.5665 3.79524 19.2954 3.88172 19.9793 3.69673L28.4345 1.44156C29.0554 1.27666 29.7178 1.40958 30.227 1.8013C30.7362 2.19303 31.0346 2.79909 31.0345 3.44156Z" fill="#F29C1F"/>
<path d="M36.5517 6.88964V27.3931C36.5508 28.636 35.7171 29.7241 34.5172 30.0483L3.50345 38.5172C4.69385 38.1834 5.5168 37.0984 5.51724 35.8621V13.531C5.51594 12.9071 5.93504 12.3606 6.53793 12.2L31.0345 5.66895L33.9517 4.88964C34.5727 4.72474 35.235 4.85766 35.7442 5.24938C36.2535 5.64111 36.5518 6.24717 36.5517 6.88964Z" fill="#F0C419"/>
<path d="M26.8966 40.0004C34.1334 40.0004 40 34.1337 40 26.8969C40 19.6601 34.1334 13.7935 26.8966 13.7935C19.6597 13.7935 13.7931 19.6601 13.7931 26.8969C13.7931 34.1337 19.6597 40.0004 26.8966 40.0004Z" fill="#2980BA"/>
<path d="M37.931 26.8967C37.926 32.002 34.4161 36.4358 29.4483 37.6124C24.4805 38.7891 19.3547 36.4007 17.0602 31.8401C14.7657 27.2795 15.9029 21.7401 19.8087 18.4524C23.7144 15.1647 29.3666 14.989 33.469 18.0277C36.2774 20.1102 37.9327 23.4004 37.931 26.8967Z" fill="#2FA8CC"/>
<path d="M33.7931 20.6901C33.791 24.8579 31.4419 28.6693 27.7197 30.5442C23.9974 32.4192 19.5365 32.0382 16.1862 29.559C15.0657 25.0396 16.9012 20.303 20.7745 17.7187C24.6478 15.1345 29.7261 15.2582 33.469 18.028C33.6857 18.8987 33.7945 19.7928 33.7931 20.6901Z" fill="#67B9CC"/>
<path d="M31.0345 31.7245C30.8516 31.7244 30.6762 31.6517 30.5469 31.5224L26.409 27.3845C26.2796 27.2552 26.2069 27.0798 26.2069 26.8969V17.9314C26.2069 17.5505 26.5157 17.2417 26.8966 17.2417C27.2774 17.2417 27.5862 17.5505 27.5862 17.9314V26.6114L31.5221 30.5472C31.7193 30.7445 31.7782 31.041 31.6715 31.2987C31.5648 31.5564 31.3134 31.7244 31.0345 31.7245Z" fill="#35495E"/>
</g>
<defs>
<clipPath id="clip0_124_4087">
<rect width="40" height="40" fill="white"/>
</clipPath>
</defs>
</svg>
