<svg width="24" height="24" viewBox="0 0 24 24" fill="none" xmlns="http://www.w3.org/2000/svg">
<path d="M12 23.662C18.6274 23.662 24 18.3651 24 11.831C24 5.29691 18.6274 0 12 0C5.37258 0 0 5.29691 0 11.831C0 18.3651 5.37258 23.662 12 23.662Z" fill="#F7DF35"/>
<path d="M15.8056 17.0612H4.00381C3.87549 17.065 3.74769 17.0435 3.62799 16.998C3.50829 16.9525 3.39912 16.8838 3.30697 16.7961C3.21481 16.7083 3.14155 16.6034 3.09152 16.4873C3.04148 16.3713 3.0157 16.2466 3.0157 16.1206C3.0157 15.9946 3.04148 15.8699 3.09152 15.7539C3.14155 15.6379 3.21481 15.5329 3.30697 15.4452C3.39912 15.3574 3.50829 15.2888 3.62799 15.2432C3.74769 15.1977 3.87549 15.1762 4.00381 15.1801H14.8468V8.57821C14.8467 8.45464 14.8715 8.33228 14.9197 8.21815C14.968 8.10403 15.0388 8.00039 15.128 7.9132L18.342 4.75903C18.4311 4.67165 18.5368 4.60233 18.6531 4.55503C18.7695 4.50774 18.8942 4.4834 19.0201 4.4834C19.146 4.4834 19.2707 4.50774 19.3871 4.55503C19.5034 4.60233 19.6091 4.67165 19.6982 4.75903C19.7872 4.84642 19.8579 4.95016 19.9061 5.06434C19.9542 5.17852 19.9791 5.30089 19.9791 5.42448C19.9791 5.54806 19.9542 5.67043 19.9061 5.78461C19.8579 5.89879 19.7872 6.00253 19.6982 6.08992L16.7672 8.96634V16.1193C16.7674 16.2432 16.7427 16.3659 16.6944 16.4804C16.6461 16.5949 16.5753 16.6989 16.4859 16.7864C16.3966 16.874 16.2905 16.9433 16.1737 16.9904C16.057 17.0376 15.9319 17.0616 15.8056 17.0612Z" fill="#0A47AA"/>
<path d="M6.2199 20.2995C6.87917 20.2995 7.41362 19.7977 7.41362 19.1787C7.41362 18.5597 6.87917 18.0579 6.2199 18.0579C5.56063 18.0579 5.02618 18.5597 5.02618 19.1787C5.02618 19.7977 5.56063 20.2995 6.2199 20.2995Z" fill="#0A47AA"/>
<path d="M13.0052 20.2995C13.6645 20.2995 14.199 19.7977 14.199 19.1787C14.199 18.5597 13.6645 18.0579 13.0052 18.0579C12.346 18.0579 11.8115 18.5597 11.8115 19.1787C11.8115 19.7977 12.346 20.2995 13.0052 20.2995Z" fill="#0A47AA"/>
<path d="M5.78071 8.59302L4.52356 9.84559V13.2009H12.4398V8.59302H5.78071ZM9.18238 9.33515H10.04V10.221H9.18238V9.33515ZM7.99516 9.33515H8.85279V10.221H7.99516V9.33515ZM8.85279 12.4596H7.99516V11.5738H8.85279V12.4596ZM10.04 12.4596H9.18238V11.5738H10.04V12.4596ZM11.2272 12.4596H10.3696V11.5738H11.2272V12.4596ZM11.2272 11.3403H7.99254V10.4545H11.2272V11.3403ZM11.2272 10.221H10.3696V9.33515H11.2272V10.221Z" fill="#0A47AA"/>
</svg>
