<svg width="24" height="24" viewBox="0 0 24 24" fill="none" xmlns="http://www.w3.org/2000/svg">
    <g opacity="0.5">
        <path opacity="0.3" d="M12 23.662C18.6274 23.662 24 18.3651 24 11.831C24 5.29691 18.6274 0 12 0C5.37258 0 0 5.29691 0 11.831C0 18.3651 5.37258 23.662 12 23.662Z" fill="#031127"/>
        <path d="M15.8056 17.0612H4.00383C3.87551 17.065 3.74771 17.0435 3.628 16.998C3.5083 16.9525 3.39914 16.8838 3.30698 16.7961C3.21483 16.7083 3.14156 16.6034 3.09153 16.4873C3.0415 16.3713 3.01572 16.2466 3.01572 16.1206C3.01572 15.9946 3.0415 15.8699 3.09153 15.7539C3.14156 15.6379 3.21483 15.5329 3.30698 15.4452C3.39914 15.3574 3.5083 15.2888 3.628 15.2432C3.74771 15.1977 3.87551 15.1762 4.00383 15.1801H14.8468V8.57821C14.8467 8.45464 14.8715 8.33228 14.9197 8.21815C14.968 8.10403 15.0388 8.00039 15.128 7.9132L18.3421 4.75903C18.4311 4.67165 18.5368 4.60233 18.6532 4.55503C18.7695 4.50774 18.8942 4.4834 19.0201 4.4834C19.1461 4.4834 19.2708 4.50774 19.3871 4.55503C19.5034 4.60233 19.6092 4.67165 19.6982 4.75903C19.7872 4.84642 19.8579 4.95016 19.9061 5.06434C19.9543 5.17852 19.9791 5.30089 19.9791 5.42448C19.9791 5.54806 19.9543 5.67043 19.9061 5.78461C19.8579 5.89879 19.7872 6.00253 19.6982 6.08992L16.7672 8.96634V16.1193C16.7674 16.2432 16.7427 16.3659 16.6944 16.4804C16.6462 16.5949 16.5753 16.6989 16.486 16.7864C16.3966 16.874 16.2905 16.9433 16.1737 16.9904C16.057 17.0376 15.9319 17.0616 15.8056 17.0612Z" fill="#031127"/>
        <path d="M6.2199 20.2993C6.87917 20.2993 7.41362 19.7975 7.41362 19.1784C7.41362 18.5594 6.87917 18.0576 6.2199 18.0576C5.56063 18.0576 5.02618 18.5594 5.02618 19.1784C5.02618 19.7975 5.56063 20.2993 6.2199 20.2993Z" fill="#031127"/>
        <path d="M13.0052 20.2993C13.6645 20.2993 14.199 19.7975 14.199 19.1784C14.199 18.5594 13.6645 18.0576 13.0052 18.0576C12.346 18.0576 11.8115 18.5594 11.8115 19.1784C11.8115 19.7975 12.346 20.2993 13.0052 20.2993Z" fill="#031127"/>
        <path d="M5.78071 8.59326L4.52356 9.84583V13.2011H12.4398V8.59326H5.78071ZM9.18238 9.3354H10.04V10.2213H9.18238V9.3354ZM7.99516 9.3354H8.85279V10.2213H7.99516V9.3354ZM8.85279 12.4599H7.99516V11.574H8.85279V12.4599ZM10.04 12.4599H9.18238V11.574H10.04V12.4599ZM11.2272 12.4599H10.3696V11.574H11.2272V12.4599ZM11.2272 11.3406H7.99254V10.4547H11.2272V11.3406ZM11.2272 10.2213H10.3696V9.3354H11.2272V10.2213Z" fill="#031127"/>
    </g>
</svg>
