<svg width="24" height="24" viewBox="0 0 24 24" fill="none" xmlns="http://www.w3.org/2000/svg">
<g opacity="0.5" clip-path="url(#clip0_2026_754)">
<path d="M22 14C22 14.553 21.552 15 21 15H6.737C7.153 16.174 8.265 17 9.557 17H19C19.552 17 20 17.447 20 18C20 18.553 19.552 19 19 19H9.557C7.022 19 4.887 17.102 4.591 14.585L3.215 2.884C3.156 2.38 2.729 2 2.222 2H1C0.448 2 0 1.553 0 1C0 0.447 0.448 0 1 0H2.222C3.743 0 5.024 1.139 5.201 2.649L5.242 3H9C9.552 3 10 3.447 10 4C10 4.553 9.552 5 9 5H5.478L6.419 13H21C21.552 13 22 13.447 22 14ZM7 20C5.895 20 5 20.895 5 22C5 23.105 5.895 24 7 24C8.105 24 9 23.105 9 22C9 20.895 8.105 20 7 20ZM17 20C15.895 20 15 20.895 15 22C15 23.105 15.895 24 17 24C18.105 24 19 23.105 19 22C19 20.895 18.105 20 17 20ZM19 5.586V4C19 3.447 18.552 3 18 3C17.448 3 17 3.447 17 4V6C17 6.266 17.105 6.52 17.293 6.707L18.293 7.707C18.488 7.902 18.744 8 19 8C19.256 8 19.512 7.902 19.707 7.707C20.098 7.316 20.098 6.684 19.707 6.293L19 5.586ZM24 6C24 9.309 21.309 12 18 12C14.691 12 12 9.309 12 6C12 2.691 14.691 0 18 0C21.309 0 24 2.691 24 6ZM22 6C22 3.794 20.206 2 18 2C15.794 2 14 3.794 14 6C14 8.206 15.794 10 18 10C20.206 10 22 8.206 22 6Z" fill="#031127"/>
</g>
<defs>
<clipPath id="clip0_2026_754">
<rect width="24" height="24" fill="white"/>
</clipPath>
</defs>
</svg>
