<svg width="20" height="20" viewBox="0 0 20 20" fill="none" xmlns="http://www.w3.org/2000/svg">
<path d="M9.99999 9.15004C9.17199 9.15002 8.36265 8.90409 7.67462 8.44345C6.98659 7.9828 6.45086 7.3282 6.13539 6.56265C5.81992 5.79711 5.73891 4.95512 5.90264 4.14347C6.06637 3.33182 6.46747 2.58708 7.05506 2.00371C7.64265 1.42034 8.39025 1.02462 9.20306 0.866734C10.0159 0.708852 10.8573 0.795922 11.6205 1.1169C12.3838 1.43788 13.0345 1.97831 13.4902 2.66964C13.9458 3.36097 14.1859 4.17206 14.18 5.00004C14.1721 6.10344 13.7282 7.15895 12.9451 7.93637C12.1621 8.7138 11.1034 9.15007 9.99999 9.15004ZM9.99999 2.80004C9.56969 2.80006 9.14901 2.92743 8.79095 3.16609C8.4329 3.40476 8.15349 3.74406 7.98792 4.14124C7.82235 4.53842 7.77803 4.97571 7.86053 5.39804C7.94304 5.82036 8.14869 6.20882 8.45157 6.51448C8.75445 6.82014 9.14102 7.02933 9.56257 7.11569C9.98412 7.20205 10.4218 7.16172 10.8205 6.99978C11.2192 6.83785 11.561 6.56154 11.8029 6.20569C12.0448 5.84983 12.176 5.43033 12.18 5.00004C12.1826 4.71208 12.1282 4.42645 12.0198 4.15965C11.9115 3.89285 11.7513 3.65016 11.5486 3.4456C11.3459 3.24105 11.1047 3.07868 10.8389 2.96788C10.5731 2.85707 10.288 2.80003 9.99999 2.80004Z" fill="#031127"/>
<path d="M14.93 19.1997H5.07C4.63247 19.1978 4.20157 19.0926 3.81234 18.8928C3.4231 18.693 3.08653 18.4041 2.83 18.0497C2.57912 17.7014 2.41625 17.2976 2.35531 16.8727C2.29436 16.4478 2.33714 16.0144 2.48 15.6097C3.04829 14.0787 4.07152 12.7582 5.41223 11.8258C6.75295 10.8933 8.34691 10.3936 9.98 10.3936C11.6131 10.3936 13.207 10.8933 14.5478 11.8258C15.8885 12.7582 16.9117 14.0787 17.48 15.6097C17.6229 16.0144 17.6656 16.4478 17.6047 16.8727C17.5437 17.2976 17.3809 17.7014 17.13 18.0497C16.8775 18.3987 16.5473 18.6843 16.1655 18.8839C15.7837 19.0834 15.3607 19.1916 14.93 19.1997ZM10 12.2497C8.76382 12.2552 7.55952 12.6424 6.55178 13.3584C5.54404 14.0744 4.78205 15.0842 4.37 16.2497C4.33248 16.3541 4.32106 16.466 4.33675 16.5758C4.35244 16.6857 4.39475 16.79 4.46 16.8797C4.5298 16.976 4.62152 17.0544 4.72759 17.1083C4.83365 17.1622 4.95102 17.1901 5.07 17.1897H14.93C15.049 17.1901 15.1663 17.1622 15.2724 17.1083C15.3785 17.0544 15.4702 16.976 15.54 16.8797C15.6052 16.79 15.6476 16.6857 15.6632 16.5758C15.6789 16.466 15.6675 16.3541 15.63 16.2497C15.2179 15.0842 14.456 14.0744 13.4482 13.3584C12.4405 12.6424 11.2362 12.2552 10 12.2497Z" fill="#031127"/>
</svg>
