<svg width="24" height="24" viewBox="0 0 24 24" fill="none" xmlns="http://www.w3.org/2000/svg">
<g opacity="0.5" clip-path="url(#clip0_2026_760)">
<path d="M12 1.99979C10.6735 2.00414 9.361 2.27153 8.13851 2.78647C6.91602 3.30142 5.8078 4.05371 4.87798 4.99979H7.99998C8.2652 4.99979 8.51955 5.10514 8.70709 5.29268C8.89462 5.48022 8.99998 5.73457 8.99998 5.99979C8.99998 6.265 8.89462 6.51936 8.70709 6.70689C8.51955 6.89443 8.2652 6.99979 7.99998 6.99979H3.85698C3.36455 6.99952 2.89237 6.80379 2.54417 6.45559C2.19598 6.1074 2.00024 5.63521 1.99998 5.14279V0.999788C1.99998 0.734571 2.10534 0.480217 2.29287 0.292681C2.48041 0.105145 2.73476 -0.000212317 2.99998 -0.000212317C3.2652 -0.000212317 3.51955 0.105145 3.70709 0.292681C3.89462 0.480217 3.99998 0.734571 3.99998 0.999788V3.07779C5.65281 1.58924 7.68739 0.590197 9.87588 0.192537C12.0644 -0.205124 14.3204 0.0142996 16.3912 0.826235C18.462 1.63817 20.266 3.01056 21.601 4.78971C22.936 6.56886 23.7493 8.68453 23.95 10.8998C23.9629 11.039 23.9467 11.1795 23.9023 11.3121C23.858 11.4447 23.7865 11.5667 23.6924 11.6702C23.5983 11.7737 23.4837 11.8564 23.3559 11.9132C23.2281 11.9699 23.0898 11.9994 22.95 11.9998C22.7054 12.0029 22.4684 11.9146 22.2855 11.7522C22.1026 11.5898 21.9869 11.365 21.961 11.1218C21.7384 8.63254 20.593 6.31649 18.7499 4.62863C16.9068 2.94076 14.4992 2.00308 12 1.99979Z" fill="#031127"/>
<path d="M1.049 12.0001C1.29359 11.997 1.53053 12.0852 1.71346 12.2476C1.89638 12.41 2.01211 12.6348 2.038 12.8781C2.20331 14.7813 2.91108 16.5972 4.07735 18.1103C5.24362 19.6234 6.81944 20.7702 8.61785 21.4146C10.4163 22.0591 12.3618 22.1742 14.2236 21.7462C16.0855 21.3182 17.7855 20.3651 19.122 19.0001H16C15.7348 19.0001 15.4804 18.8947 15.2929 18.7072C15.1054 18.5197 15 18.2653 15 18.0001C15 17.7349 15.1054 17.4805 15.2929 17.293C15.4804 17.1054 15.7348 17.0001 16 17.0001H20.143C20.3869 16.9999 20.6284 17.0479 20.8538 17.1412C21.0792 17.2344 21.2839 17.3712 21.4564 17.5437C21.6289 17.7162 21.7656 17.9209 21.8589 18.1463C21.9522 18.3716 22.0001 18.6132 22 18.8571V23.0001C22 23.2653 21.8946 23.5197 21.7071 23.7072C21.5196 23.8947 21.2652 24.0001 21 24.0001C20.7348 24.0001 20.4804 23.8947 20.2929 23.7072C20.1054 23.5197 20 23.2653 20 23.0001V20.9221C18.3472 22.4106 16.3126 23.4097 14.1241 23.8073C11.9356 24.205 9.67963 23.9856 7.60879 23.1736C5.53794 22.3617 3.73402 20.9893 2.39901 19.2102C1.06401 17.431 0.250641 15.3153 0.0499992 13.1001C0.0370827 12.9608 0.0533161 12.8204 0.0976639 12.6878C0.142012 12.5551 0.213501 12.4332 0.307577 12.3297C0.401653 12.2262 0.516254 12.1435 0.644077 12.0867C0.7719 12.03 0.909145 12.0005 1.049 12.0001Z" fill="#031127"/>
<path d="M13 17C14.654 17 16 15.654 16 14V14.001C16 12.641 15.027 11.491 13.685 11.268L10.644 10.761C10.271 10.699 10 10.379 10 10.001C10 9.45 10.448 9.001 11 9.001H13.268C13.624 9.001 13.956 9.192 14.135 9.501C14.41 9.979 15.021 10.143 15.501 9.866C15.978 9.589 16.142 8.978 15.865 8.5C15.33 7.575 14.334 7 13.267 7H12.999V6C12.999 5.448 12.552 5 11.999 5C11.446 5 10.999 5.448 10.999 6V7C9.34502 7 7.99902 8.346 7.99902 10C7.99902 11.36 8.97202 12.51 10.314 12.733L13.355 13.24C13.728 13.302 13.999 13.622 13.999 14C13.999 14.552 13.551 15 12.999 15H10.731C10.375 15 10.043 14.809 9.86402 14.499C9.58902 14.022 8.97702 13.856 8.49802 14.135C8.02102 14.411 7.85702 15.022 8.13402 15.501C8.66902 16.426 9.66502 17 10.732 17H11V18C11 18.553 11.447 19 12 19C12.553 19 13 18.553 13 18V17Z" fill="#031127"/>
</g>
<defs>
<clipPath id="clip0_2026_760">
<rect width="24" height="24" fill="white"/>
</clipPath>
</defs>
</svg>
