<svg width="28" height="28" viewBox="0 0 28 28" fill="none" xmlns="http://www.w3.org/2000/svg">
<g clip-path="url(#clip0_88_969)">
<path d="M28 14C28 11.2311 27.1789 8.52431 25.6406 6.22202C24.1022 3.91973 21.9157 2.12532 19.3576 1.06569C16.7994 0.006066 13.9845 -0.271181 11.2687 0.269012C8.55301 0.809205 6.05845 2.14258 4.10051 4.10051C2.14258 6.05845 0.809205 8.55301 0.269012 11.2687C-0.271181 13.9845 0.006066 16.7994 1.06569 19.3576C2.12532 21.9157 3.91973 24.1022 6.22202 25.6406C8.52431 27.1789 11.2311 28 14 28C17.7118 27.996 21.2704 26.5197 23.8951 23.8951C26.5197 21.2704 27.996 17.7118 28 14ZM9.33334 14C9.33246 13.146 9.64459 12.3213 10.2107 11.6818C10.5502 11.3003 10.8803 10.9387 11.1172 10.7018L14.4118 7.35001C14.6314 7.14373 14.9223 7.03039 15.2235 7.0337C15.5247 7.03701 15.813 7.15673 16.028 7.36778C16.243 7.57884 16.368 7.86487 16.3768 8.166C16.3857 8.46713 16.2777 8.76002 16.0755 8.98334L12.775 12.3433C12.5568 12.5627 12.2605 12.8893 11.9583 13.2288C11.7703 13.442 11.6666 13.7164 11.6666 14.0006C11.6666 14.2848 11.7703 14.5592 11.9583 14.7723C12.2593 15.1107 12.5557 15.4373 12.7668 15.6497L16.0755 19.0167C16.2777 19.24 16.3857 19.5329 16.3768 19.834C16.368 20.1351 16.243 20.4212 16.028 20.6322C15.813 20.8433 15.5247 20.963 15.2235 20.9663C14.9223 20.9696 14.6314 20.8563 14.4118 20.65L11.1113 17.2923C10.878 17.059 10.5513 16.7008 10.2142 16.3205C9.646 15.6812 9.33253 14.8553 9.33334 14Z" fill="#0A47AA"/>
</g>
<defs>
<clipPath id="clip0_88_969">
<rect width="28" height="28" fill="white"/>
</clipPath>
</defs>
</svg>
