<svg width="108" height="32" viewBox="0 0 108 32" fill="none" xmlns="http://www.w3.org/2000/svg">
<g clip-path="url(#clip0_196_683)">
<path d="M16.4069 32.0002C25.3408 32.0002 32.5832 24.8367 32.5832 16C32.5832 7.16333 25.3408 -0.000213623 16.4069 -0.000213623C7.47305 -0.000213623 0.230694 7.16333 0.230694 16C0.230694 24.8367 7.47305 32.0002 16.4069 32.0002Z" fill="#F7DF35"/>
<path d="M21.5052 22.9666H5.69255C5.52062 22.9718 5.34938 22.9428 5.189 22.8813C5.02862 22.8198 4.88235 22.7271 4.75888 22.6086C4.63541 22.4902 4.53725 22.3484 4.47021 22.1917C4.40317 22.035 4.36863 21.8666 4.36863 21.6965C4.36863 21.5263 4.40317 21.3579 4.47021 21.2012C4.53725 21.0445 4.63541 20.9028 4.75888 20.7843C4.88235 20.6658 5.02862 20.5731 5.189 20.5116C5.34938 20.4501 5.52062 20.4211 5.69255 20.4263H20.2204V11.511C20.2203 11.3441 20.2535 11.1789 20.3182 11.0248C20.3829 10.8707 20.4777 10.7307 20.5972 10.613L24.9036 6.35349C25.0229 6.23548 25.1645 6.14187 25.3204 6.078C25.4763 6.01413 25.6434 5.98126 25.8121 5.98126C25.9808 5.98126 26.1479 6.01413 26.3038 6.078C26.4596 6.14187 26.6013 6.23548 26.7206 6.35349C26.8399 6.4715 26.9345 6.61159 26.9991 6.76578C27.0637 6.91997 27.0969 7.08523 27.0969 7.25212C27.0969 7.41901 27.0637 7.58426 26.9991 7.73845C26.9345 7.89264 26.8399 8.03274 26.7206 8.15075L22.7935 12.0351V21.6947C22.7938 21.862 22.7607 22.0277 22.696 22.1823C22.6313 22.337 22.5364 22.4774 22.4167 22.5956C22.297 22.7138 22.1548 22.8074 21.9984 22.8711C21.8419 22.9348 21.6743 22.9672 21.5052 22.9666Z" fill="#0A47AA"/>
<path d="M8.6053 27.3432C9.45819 27.3432 10.1496 26.6593 10.1496 25.8157C10.1496 24.9721 9.45819 24.2882 8.6053 24.2882C7.75241 24.2882 7.061 24.9721 7.061 25.8157C7.061 26.6593 7.75241 27.3432 8.6053 27.3432Z" fill="#0A47AA"/>
<path d="M17.7574 27.3432C18.6103 27.3432 19.3017 26.6593 19.3017 25.8157C19.3017 24.9721 18.6103 24.2882 17.7574 24.2882C16.9046 24.2882 16.2132 24.9721 16.2132 25.8157C16.2132 26.6593 16.9046 27.3432 17.7574 27.3432Z" fill="#0A47AA"/>
<path d="M7.97252 11.5323L6.25238 13.2337V17.7913H17.084V11.5323H7.97252ZM12.6269 12.5404H13.8004V13.7437H12.6269V12.5404ZM11.0025 12.5404H12.176V13.7437H11.0025V12.5404ZM12.176 16.7845H11.0025V15.5812H12.176V16.7845ZM13.8004 16.7845H12.6269V15.5812H13.8004V16.7845ZM15.4249 16.7845H14.2514V15.5812H15.4249V16.7845ZM15.4249 15.2641H10.9989V14.0608H15.4249V15.2641ZM15.4249 13.7437H14.2514V12.5404H15.4249V13.7437Z" fill="#0A47AA"/>
<path d="M40.1049 20.1601C41.0563 20.1601 41.7485 20.0023 42.1815 19.6868C42.6145 19.3713 42.8311 18.9221 42.8311 18.3392C42.8399 18.0276 42.7639 17.7195 42.611 17.447C42.4503 17.1818 42.2361 16.9522 41.9818 16.7726C41.6712 16.5504 41.3371 16.3623 40.9853 16.2118C40.5946 16.039 40.1472 15.8699 39.6432 15.7042C39.1392 15.5244 38.6535 15.3272 38.1862 15.1126C37.735 14.9099 37.3176 14.6406 36.9481 14.314C36.558 13.9726 36.2493 13.5498 36.0443 13.0762C35.8393 12.6025 35.7431 12.0898 35.7627 11.5749C35.7627 10.2757 36.2173 9.25584 37.1264 8.51516C38.0355 7.77449 39.2716 7.40455 40.8346 7.40534C41.6522 7.39401 42.4674 7.49515 43.2569 7.70587C43.8374 7.85663 44.3973 8.07632 44.9244 8.36017L44.1062 10.4757C43.615 10.2071 43.0896 10.0049 42.544 9.87465C41.9709 9.7353 41.3828 9.66537 40.7927 9.66641C40.075 9.66641 39.5192 9.81154 39.1252 10.1018C38.9307 10.2409 38.7742 10.4256 38.6698 10.6394C38.5654 10.8532 38.5163 11.0892 38.5271 11.3264C38.5189 11.6123 38.5874 11.8952 38.7257 12.1464C38.8698 12.3869 39.0629 12.5952 39.2927 12.7581C39.5618 12.9522 39.8499 13.1191 40.1528 13.2562C40.4805 13.4084 40.8394 13.5536 41.2293 13.6916C41.9136 13.9401 42.5252 14.1925 43.0643 14.4488C43.5651 14.6792 44.0254 14.9871 44.428 15.3611C44.7966 15.7121 45.0861 16.1363 45.2773 16.6058C45.4859 17.1598 45.5854 17.7482 45.5704 18.3392C45.5704 19.6399 45.1054 20.646 44.1756 21.3575C43.2457 22.069 41.8861 22.4239 40.0965 22.4223C39.5456 22.425 38.9953 22.3854 38.4506 22.304C38.006 22.2396 37.5661 22.1471 37.1335 22.0272C36.7949 21.9323 36.4621 21.8177 36.1371 21.684C35.9069 21.591 35.6828 21.484 35.466 21.3634L36.2424 19.2266C36.7324 19.48 37.2449 19.6883 37.7735 19.8489C38.5295 20.0722 39.3161 20.1772 40.1049 20.1601Z" fill="white"/>
<path d="M56.7369 11.2602C55.6061 15.3816 54.2951 19.1157 52.8038 22.4626C52.5607 23.0171 52.2727 23.5513 51.9425 24.0599C51.6737 24.475 51.3407 24.8459 50.9557 25.1591C50.5961 25.4476 50.1822 25.6628 49.7379 25.7921C48.8501 26.028 47.9185 26.0532 47.019 25.8654C46.7193 25.8085 46.4271 25.718 46.1481 25.5956L46.6087 23.5842C47.0851 23.7716 47.5925 23.8699 48.1051 23.8741C48.7654 23.8741 49.2818 23.7187 49.6542 23.4079C50.0266 23.0972 50.3532 22.6164 50.6339 21.9656C49.8364 20.4441 49.0673 18.7844 48.3264 16.9868C47.5643 15.1155 46.907 13.2041 46.3575 11.2613H49.0633C49.2036 11.8411 49.3755 12.4702 49.5788 13.1485C49.7822 13.8269 50.0035 14.5151 50.2427 15.2132C50.482 15.9113 50.7344 16.6062 50.9999 17.298C51.2655 17.9897 51.5322 18.633 51.8002 19.2277C52.2452 17.9964 52.663 16.6859 53.0538 15.296C53.4446 13.9062 53.7994 12.5613 54.1184 11.2613L56.7369 11.2602Z" fill="white"/>
<path d="M64.9177 16.4047C64.9177 15.2712 64.7742 14.4516 64.4871 13.946C64.2 13.4404 63.6653 13.188 62.883 13.1888C62.5742 13.1909 62.2657 13.2118 61.9595 13.2515C61.6246 13.2929 61.3722 13.3272 61.2047 13.3544V22.11H58.6652V11.6116C59.2951 11.4447 59.9341 11.3132 60.5791 11.2176C61.4102 11.0899 62.2501 11.0274 63.0911 11.0306C63.8463 11.0306 64.4652 11.1273 64.9476 11.3205C65.3986 11.4958 65.8092 11.7594 66.1546 12.0955C66.3416 11.9636 66.5379 11.845 66.7419 11.7406C66.9986 11.6073 67.2649 11.493 67.5386 11.3986C67.8439 11.2916 68.156 11.2046 68.4728 11.1383C68.8004 11.0697 69.1344 11.0352 69.4693 11.0354C70.321 11.0354 71.0235 11.1565 71.577 11.3986C72.0961 11.6136 72.5458 11.9651 72.8773 12.415C73.2069 12.8867 73.4289 13.4236 73.528 13.9886C73.6509 14.6561 73.7102 15.3334 73.705 16.0119V22.1112H71.1679V16.4047C71.1679 15.2712 71.0279 14.4516 70.748 13.946C70.4681 13.4404 69.9298 13.188 69.1331 13.1888C68.74 13.1869 68.3496 13.2538 67.98 13.3864C67.6927 13.4812 67.418 13.6099 67.1618 13.7697C67.2759 14.1275 67.3532 14.4958 67.3927 14.8689C67.4357 15.2828 67.4564 15.6987 67.4549 16.1148V22.11H64.9177V16.4047Z" fill="white"/>
<path d="M85.9709 16.6945C85.9816 17.4964 85.8492 18.2939 85.5797 19.0502C85.3389 19.7181 84.96 20.3289 84.4673 20.844C83.9762 21.3482 83.3781 21.7381 82.716 21.9857C81.9715 22.2587 81.1822 22.3923 80.3882 22.3797C79.5838 22.3822 78.7804 22.3197 77.9863 22.1928C77.345 22.0953 76.7109 21.9566 76.0879 21.7775V6.42564L78.6262 6.01035V11.6328C78.9711 11.4613 79.3315 11.3222 79.7028 11.2175C80.857 10.9088 82.0819 10.9857 83.1873 11.4364C83.7802 11.694 84.3016 12.0889 84.7077 12.5877C85.1321 13.1209 85.4488 13.7299 85.6408 14.3814C85.8665 15.1319 85.9777 15.9115 85.9709 16.6945ZM83.3704 16.6531C83.3704 15.5882 83.157 14.7446 82.7304 14.1223C82.3037 13.4999 81.6291 13.1887 80.7064 13.1887C79.9705 13.1909 79.2504 13.3998 78.6298 13.791V20.0347C78.8617 20.0859 79.096 20.1254 79.332 20.153C79.6767 20.1905 80.0235 20.2079 80.3703 20.205C81.3065 20.205 82.0406 19.8895 82.5725 19.2585C83.1044 18.6274 83.3704 17.759 83.3704 16.6531Z" fill="white"/>
<path d="M92.2426 10.9892C93.0807 10.9892 93.7869 11.0933 94.3611 11.3016C94.884 11.4762 95.3556 11.7753 95.7343 12.1724C96.0836 12.5618 96.3341 13.0278 96.4652 13.5319C96.6183 14.1055 96.6935 14.6968 96.6889 15.2901V21.8674C96.2965 21.9463 95.7056 22.0465 94.9161 22.168C94.0306 22.2918 93.137 22.3507 92.2426 22.3443C91.6359 22.3479 91.0308 22.2836 90.4387 22.1526C89.9389 22.0465 89.466 21.8412 89.0487 21.5492C88.6614 21.2705 88.3512 20.8998 88.1468 20.4713C87.9144 19.956 87.8031 19.3953 87.8214 18.8314C87.8034 18.2834 87.9299 17.7402 88.1887 17.2554C88.4292 16.8306 88.7713 16.4707 89.1851 16.2071C89.6307 15.9268 90.1246 15.7299 90.6421 15.6261C91.2111 15.5071 91.7913 15.448 92.373 15.4498C92.6672 15.4509 92.9611 15.4683 93.2534 15.5019C93.5852 15.5413 93.9143 15.6002 94.2391 15.6782V15.2641C94.2402 14.9847 94.2053 14.7064 94.135 14.4358C94.0681 14.1795 93.9424 13.9419 93.7678 13.7413C93.5793 13.5315 93.3414 13.371 93.0752 13.274C92.7295 13.1545 92.3646 13.0984 91.9986 13.1083C91.4577 13.1047 90.9175 13.1462 90.3837 13.2325C89.9771 13.2947 89.5768 13.3921 89.1875 13.5236L88.8729 11.4897C89.3325 11.3464 89.8018 11.2357 90.2772 11.1584C90.9259 11.0438 91.5837 10.9872 92.2426 10.9892ZM92.4519 20.3459C93.0485 20.3622 93.6453 20.3226 94.2343 20.2275V17.4423C94.0345 17.3884 93.8315 17.3465 93.6266 17.3169C93.3348 17.2738 93.0401 17.2533 92.745 17.2554C92.4608 17.2555 92.1769 17.2761 91.8957 17.3169C91.6272 17.354 91.3658 17.431 91.1206 17.5453C90.8969 17.65 90.705 17.8112 90.5643 18.0126C90.4174 18.2377 90.3443 18.5021 90.355 18.7699C90.355 19.3646 90.5436 19.776 90.9208 20.0039C91.298 20.2319 91.8084 20.3459 92.4519 20.3459Z" fill="white"/>
<path d="M103.323 10.9892C104.161 10.9892 104.867 11.0933 105.442 11.3016C105.964 11.4762 106.436 11.7753 106.815 12.1724C107.166 12.5611 107.418 13.0272 107.549 13.5319C107.702 14.1056 107.776 14.6969 107.769 15.2901V21.8674C107.379 21.9463 106.788 22.0465 105.997 22.168C105.111 22.2918 104.217 22.3507 103.323 22.3443C102.716 22.3479 102.111 22.2836 101.519 22.1526C101.018 22.0475 100.543 21.8426 100.124 21.5503C99.737 21.2716 99.4268 20.9009 99.2225 20.4725C98.99 19.9572 98.8788 19.3965 98.8971 18.8326C98.879 18.2846 99.0056 17.7414 99.2643 17.2566C99.5048 16.8318 99.8469 16.4718 100.261 16.2083C100.707 15.928 101.201 15.7311 101.719 15.6273C102.288 15.5082 102.867 15.4491 103.449 15.451C103.743 15.4521 104.037 15.4694 104.329 15.5031C104.661 15.5425 104.99 15.6013 105.315 15.6794V15.2653C105.316 14.9859 105.281 14.7076 105.211 14.437C105.144 14.1807 105.018 13.9431 104.843 13.7425C104.655 13.5324 104.417 13.3719 104.151 13.2751C103.805 13.1555 103.44 13.0993 103.074 13.1095C102.533 13.1058 101.993 13.1474 101.459 13.2337C101.053 13.2959 100.652 13.3933 100.263 13.5248L99.9485 11.4909C100.409 11.3476 100.878 11.2369 101.354 11.1596C102.004 11.0442 102.663 10.9872 103.323 10.9892ZM103.532 20.3459C104.129 20.3622 104.726 20.3226 105.315 20.2275V17.4423C105.115 17.3883 104.912 17.3464 104.707 17.3169C104.416 17.2739 104.121 17.2533 103.827 17.2554C103.542 17.2555 103.259 17.276 102.977 17.3169C102.708 17.354 102.447 17.431 102.201 17.5453C101.977 17.6497 101.786 17.8105 101.645 18.0114C101.498 18.2365 101.425 18.501 101.435 18.7687C101.435 19.3634 101.624 19.7748 102.001 20.0027C102.378 20.2307 102.889 20.3451 103.532 20.3459Z" fill="white"/>
</g>
<defs>
<clipPath id="clip0_196_683">
<rect width="108" height="32" fill="white"/>
</clipPath>
</defs>
</svg>
