<svg width="40" height="40" viewBox="0 0 40 40" fill="none" xmlns="http://www.w3.org/2000/svg">
<path d="M29.028 1.99383C28.9686 1.95944 28.9057 1.93036 28.8395 1.90685L23.7069 0.0724755C23.2837 -0.0792309 22.7544 0.00868996 22.2087 0.322485L11.4333 6.51839C10.1257 7.27028 9.06791 9.09494 9.07217 10.5914L9.14929 37.6649C9.15138 38.408 9.415 38.9309 9.84 39.1769L10.9865 39.8404C13.4343 39.0276 19.5178 31.6339 15.8518 31.6136L13.0931 14.9567C13.0889 13.4603 14.1466 11.6356 15.4542 10.8837L22.4375 4.30842C22.9832 3.99462 23.5125 3.9067 23.9357 4.05841L28.6985 4.29159C28.8962 5.08346 30.2808 3.59123 30.1744 2.65736L29.028 1.99383Z" fill="#1C323D"/>
<path d="M23.3551 0.98606C23.9008 0.672265 24.4302 0.584342 24.8533 0.736051L29.986 2.57042C30.5398 2.76713 30.862 3.35457 30.8644 4.16925L30.9278 26.4649C30.9321 27.9613 29.8744 29.7849 28.5667 30.5368L12.6722 39.6762C11.3646 40.4281 10.3 39.8249 10.2957 38.3285L10.2186 11.255C10.2144 9.75851 11.2721 7.93385 12.5797 7.18196L23.3551 0.98606Z" fill="#324566"/>
<path d="M30.9272 26.4649C30.9317 27.9612 29.8744 29.7845 28.5671 30.5371L12.672 39.6769C11.3648 40.428 10.3001 39.8257 10.2956 38.3279L10.2188 11.2544C10.2173 10.761 10.3311 10.2337 10.5322 9.71975C10.7423 9.6741 10.9522 9.6358 11.1637 9.60193C12.9766 9.31327 14.8265 9.41048 16.6602 9.47969C18.1345 9.53713 19.7138 9.54744 20.9486 8.74332C22.2292 7.90827 23.078 6.24259 24.6025 6.11888C25.5637 6.03935 26.6581 6.60783 27.424 6.02462C27.9416 5.62993 28.02 4.89355 28.3512 4.33538C28.5228 4.04672 28.7638 3.8052 29.027 3.59753C29.4529 3.26175 29.9424 3.02905 30.4584 2.89209C30.7187 3.18517 30.8621 3.62699 30.8636 4.16896L30.9272 26.4649Z" fill="#26404F"/>
<path d="M28.5321 16.8497V13.6464C28.2352 12.8927 27.5777 12.3558 26.6714 12.878L24.5888 14.1496L16.5604 18.6783L14.7736 19.6531C13.6157 20.3188 12.5541 21.9337 12.5585 23.2592L12.6324 34.5395C12.6369 35.865 13.4473 36.2305 14.6052 35.5648L16.5789 34.3969L24.6257 29.8405L26.574 28.7114C27.7319 28.0458 28.5104 26.5948 28.5075 25.2693L28.5475 17.046L28.5321 16.8497Z" fill="#FBD46C"/>
<path d="M28.5753 25.2534C28.5782 26.5788 27.6752 27.9839 26.5173 28.6496L24.6134 29.7971L16.5327 34.4056L14.6052 35.5102C13.4473 36.1758 12.603 35.8599 12.5986 34.5345L12.614 24.0595C13.4037 24.0654 14.0251 24.0986 14.7201 23.7598C16.4073 22.9351 17.0905 20.5316 18.9375 20.1781C19.5423 20.0618 20.1619 20.2017 20.7756 20.237C21.3907 20.2738 22.0754 20.1737 22.4747 19.7068C22.942 19.159 22.8754 18.2724 23.4078 17.7878C24.2758 16.9984 25.8891 17.941 26.7704 17.1663C27.3811 16.6303 27.2333 15.5949 27.7642 14.9823C27.9949 14.7172 28.1832 14.601 28.5322 14.5303L28.5753 25.2534Z" fill="#F9C539"/>
<path d="M26.5545 12.7214C27.713 12.0552 28.6592 12.5912 28.663 13.917L28.6951 25.2036C28.6989 26.5294 27.7588 28.15 26.6003 28.8161L24.6347 29.9464L16.5576 34.5908L14.5919 35.721C13.4335 36.3872 12.4872 35.8512 12.4834 34.5255L12.4513 23.2388C12.4475 21.9131 13.3877 20.2924 14.5461 19.6263L16.5108 18.4965L24.5889 13.8516L26.5545 12.7214ZM28.3453 24.2068L28.3332 19.9572L22.6145 23.2455L22.6175 24.2914L23.2718 23.9152C24.1083 23.4342 24.7913 23.8207 24.794 24.778L24.7982 26.2464L28.3453 24.2068ZM28.332 19.5618L28.3199 15.3123L24.7728 17.3519L24.777 18.8202C24.7797 19.7775 24.1012 20.9469 23.2647 21.4279L22.6104 21.8041L22.6134 22.85L28.332 19.5618ZM12.8012 24.2356L12.8133 28.4851L18.5319 25.1969L18.5289 24.151L17.8747 24.5272C17.0381 25.0082 16.3552 24.6217 16.3525 23.6644L16.3483 22.196L12.8012 24.2356ZM16.3695 29.6221C16.3667 28.6648 17.0452 27.4955 17.8817 27.0145L18.536 26.6383L18.533 25.5924L12.8144 28.8806L12.8265 33.1301L16.3736 31.0905L16.3695 29.6221ZM20.4218 31.9728L20.4047 25.9599L17.8829 27.4099C17.2371 27.7813 16.7138 28.6839 16.7159 29.4229L16.7292 34.096L20.4218 31.9728ZM24.4608 29.6503L24.4475 24.9772C24.4454 24.2382 23.9187 23.9393 23.2729 24.3106L20.7511 25.7607L20.7682 31.7735L24.4608 29.6503ZM16.6857 18.7921L16.699 23.4652C16.7011 24.2042 17.2278 24.5031 17.8735 24.1318L18.7015 23.6557L20.3953 22.6817L20.3782 16.6689L16.6857 18.7921ZM20.7247 16.4697L20.7418 22.4825L22.4356 21.5086L23.2636 21.0325C23.9094 20.6611 24.4326 19.7585 24.4305 19.0195L24.4172 14.3464L20.7247 16.4697ZM28.3487 25.4028L28.3464 24.6033L24.7993 26.6429L24.8073 29.4511L26.5992 28.4207C27.5669 27.8642 28.3518 26.5103 28.3487 25.4028ZM16.3828 34.2952L16.3748 31.487L12.8277 33.5266L12.8299 34.3262C12.8331 35.4337 13.6231 35.8821 14.5908 35.3256L16.3828 34.2952ZM28.3188 14.9157L28.3165 14.1162C28.3134 13.0087 27.5234 12.5604 26.5556 13.1168L24.7637 14.1472L24.7717 16.9553L28.3188 14.9157ZM12.7978 23.0395L12.8001 23.8391L16.3472 21.7995L16.3392 18.9913L14.5472 20.0217C13.5795 20.5782 12.7947 21.932 12.7978 23.0395ZM22.2639 22.0034L18.8754 23.9518L18.8825 26.438L22.271 24.4896L22.2639 22.0034Z" fill="#1C323D"/>
</svg>
