<svg width="24" height="24" viewBox="0 0 24 24" fill="none" xmlns="http://www.w3.org/2000/svg">
<path d="M13.4999 10.5C13.4999 11.328 12.8279 12 11.9999 12C11.1719 12 10.4999 11.328 10.4999 10.5C10.4999 9.672 11.1719 9 11.9999 9C12.8279 9 13.4999 9.672 13.4999 10.5ZM16.9999 9C16.1719 9 15.4999 9.672 15.4999 10.5C15.4999 11.328 16.1719 12 16.9999 12C17.8279 12 18.4999 11.328 18.4999 10.5C18.4999 9.672 17.8279 9 16.9999 9ZM6.9999 9C6.1719 9 5.4999 9.672 5.4999 10.5C5.4999 11.328 6.1719 12 6.9999 12C7.8279 12 8.4999 11.328 8.4999 10.5C8.4999 9.672 7.8279 9 6.9999 9ZM23.9999 4V16C23.9999 18.206 22.2059 20 19.9999 20H17.1479L13.2999 23.18C12.9389 23.502 12.4759 23.664 12.0079 23.664C11.5319 23.664 11.0529 23.496 10.6709 23.157L6.9219 20H3.9989C1.7929 20 -0.00109863 18.206 -0.00109863 16V4C-9.86326e-05 1.794 1.7939 0 3.9999 0H19.9999C22.2059 0 23.9999 1.794 23.9999 4ZM21.9999 4C21.9999 2.897 21.1029 2 19.9999 2H3.9999C2.8969 2 1.9999 2.897 1.9999 4V16C1.9999 17.103 2.8969 18 3.9999 18H7.2879C7.5229 18 7.7519 18.083 7.9329 18.235L11.9809 21.645L16.1519 18.229C16.3309 18.081 16.5559 18 16.7889 18H20.0009C21.1039 18 22.0009 17.103 22.0009 16L21.9999 4Z" fill="black"/>
</svg>
