<svg width="24" height="24" viewBox="0 0 24 24" fill="none" xmlns="http://www.w3.org/2000/svg">
<path d="M7 17H12V20H10C8.343 20 7 18.657 7 17ZM14 20C15.657 20 17 18.657 17 17H14V20ZM14 12H12V15H17C17 13.343 15.657 12 14 12ZM10 12C8.343 12 7 13.343 7 15H10V12ZM21 8.071V19C21 21.757 18.757 24 16 24H8C5.243 24 3 21.757 3 19V5C3 2.243 5.243 0 8 0H12.929C14.532 0 16.038 0.624 17.172 1.757L19.243 3.828C20.376 4.961 21 6.468 21 8.071ZM19 8.071C19 7.003 18.584 5.998 17.829 5.242L15.758 3.171C15.003 2.416 13.998 2 12.929 2H8C6.346 2 5 3.346 5 5V19C5 20.654 6.346 22 8 22H16C17.654 22 19 20.654 19 19V8.071Z" fill="#031127"/>
</svg>
