<svg width="40" height="40" viewBox="0 0 40 40" fill="none" xmlns="http://www.w3.org/2000/svg">
<g clip-path="url(#clip0_124_4120)">
<path d="M7.55423 13.0191V10.6262C7.55423 10.3572 7.77297 10.1384 8.04181 10.1384L31.8345 3.84094C32.1034 3.84094 32.3221 4.05979 32.3221 4.32877V6.7217H36.1612V4.32877C36.1612 1.93806 34.2241 0 31.8347 0L8.04171 6.29741C5.65223 6.29741 3.71518 8.23547 3.71518 10.6262V13.0191H7.55423Z" fill="#0D843D"/>
<path d="M35.9676 30.5478L7.7476 38.9459C5.52055 38.9459 3.71518 37.1396 3.71518 34.9114V13.0192L35.9676 4.62109C38.1946 4.62109 40 6.4274 40 8.65561V26.5134C40 28.7415 38.1946 30.5478 35.9676 30.5478Z" fill="url(#paint0_linear_124_4120)"/>
<path d="M32.0284 24.0798C33.8835 24.0798 35.3874 22.5752 35.3874 20.7191C35.3874 18.863 33.8835 17.3584 32.0284 17.3584C30.1733 17.3584 28.6695 18.863 28.6695 20.7191C28.6695 22.5752 30.1733 24.0798 32.0284 24.0798Z" fill="#A2FCB3"/>
<path d="M8.94737 40.0002C13.8889 40.0002 17.8947 35.9923 17.8947 31.0482C17.8947 26.1041 13.8889 22.0962 8.94737 22.0962C4.00587 22.0962 0 26.1041 0 31.0482C0 35.9923 4.00587 40.0002 8.94737 40.0002Z" fill="url(#paint1_linear_124_4120)"/>
<path d="M4.44176 31.2278C5.0585 31.8449 6.05776 31.8449 6.6745 31.2278L7.36839 30.5336V35.3767C7.36839 36.2494 8.07513 36.9565 8.94734 36.9565C9.81955 36.9565 10.5263 36.2494 10.5263 35.3767V30.5336L11.2202 31.2278C11.8369 31.8449 12.8362 31.8449 13.4529 31.2278C14.0697 30.6113 14.0697 29.6106 13.4529 28.9939L10.0638 25.603C9.75534 25.2944 9.35134 25.1401 8.94745 25.1401C8.54355 25.1401 8.13945 25.2944 7.83113 25.603L4.44197 28.9939C3.82503 29.6106 3.82503 30.6113 4.44176 31.2278Z" fill="#FFF9E9"/>
</g>
<defs>
<linearGradient id="paint0_linear_124_4120" x1="3.71476" y1="25.9823" x2="42.1053" y2="25.9823" gradientUnits="userSpaceOnUse">
<stop stop-color="#0CA529"/>
<stop offset="1" stop-color="#00CE2C"/>
</linearGradient>
<linearGradient id="paint1_linear_124_4120" x1="8.94737" y1="22.1173" x2="8.94737" y2="39.0166" gradientUnits="userSpaceOnUse">
<stop stop-color="#FFE878"/>
<stop offset="1" stop-color="#FEAD00"/>
</linearGradient>
<clipPath id="clip0_124_4120">
<rect width="40" height="40" fill="white"/>
</clipPath>
</defs>
</svg>
